<?xml version="1.0" standalone="no"?>
<!DOCTYPE svg PUBLIC "-//W3C//DTD SVG 20010904//EN"
 "http://www.w3.org/TR/2001/REC-SVG-20010904/DTD/svg10.dtd">
<svg version="1.0" xmlns="http://www.w3.org/2000/svg"
 width="1152.000000pt" height="1152.000000pt" viewBox="0 0 1152.000000 1152.000000"
 preserveAspectRatio="xMidYMid meet">
<metadata>
Created by potrace 1.14, written by Peter Selinger 2001-2017
</metadata>
<g transform="translate(0.000000,1152.000000) scale(0.100000,-0.100000)"
fill="#000000" stroke="none">
<path d="M7667 11254 c-1 -1 -15 -4 -32 -7 -16 -3 -43 -11 -60 -18 -16 -7 -33
-13 -36 -13 -3 -1 -32 -18 -63 -38 -32 -21 -62 -38 -67 -38 -5 0 -9 -4 -9 -9
0 -5 -21 -23 -47 -40 -27 -17 -61 -42 -78 -56 -16 -13 -35 -28 -40 -32 -6 -5
-51 -42 -100 -83 -235 -195 -371 -328 -600 -584 -5 -6 -32 -38 -60 -71 -27
-33 -53 -61 -57 -63 -5 -2 -8 -9 -8 -15 0 -7 -15 -28 -33 -49 -17 -20 -50 -62
-72 -93 -22 -32 -46 -63 -52 -71 -7 -7 -13 -17 -13 -22 0 -6 -3 -12 -7 -14 -9
-4 -53 -65 -53 -73 0 -3 -5 -11 -10 -18 -21 -24 -98 -147 -92 -147 3 0 -3 -10
-14 -22 -10 -13 -24 -32 -30 -43 -6 -11 -26 -47 -44 -80 -45 -79 -143 -264
-181 -342 -17 -35 -35 -63 -39 -63 -11 0 -35 41 -96 160 -27 52 -51 97 -54
100 -3 3 -14 21 -24 40 -30 55 -142 223 -165 247 -12 12 -21 25 -21 29 0 4
-32 44 -71 91 -70 84 -82 97 -150 169 -70 75 -208 200 -308 280 -13 11 -29 25
-36 32 -8 6 -18 12 -23 12 -6 0 -12 3 -14 8 -5 12 -145 112 -157 112 -6 0 -11
5 -11 10 0 6 -7 10 -15 10 -8 0 -15 5 -15 10 0 6 -5 10 -11 10 -6 0 -23 8 -37
19 -120 85 -522 269 -652 298 -17 4 -28 8 -50 15 -18 7 -97 28 -119 33 -9 2
-37 8 -64 14 -26 6 -64 14 -83 17 -20 3 -46 8 -58 10 -26 5 -90 14 -136 19
-19 2 -60 7 -90 10 -30 3 -117 7 -192 9 -133 4 -138 3 -195 -24 -61 -29 -133
-88 -133 -108 0 -7 -5 -12 -10 -12 -6 0 -23 -27 -39 -59 -28 -58 -29 -64 -25
-188 2 -70 5 -148 8 -173 9 -93 17 -165 21 -185 2 -11 7 -37 10 -59 3 -21 7
-41 9 -45 3 -4 7 -25 9 -46 3 -22 13 -69 22 -105 9 -36 18 -69 20 -75 16 -70
81 -269 98 -300 6 -11 12 -26 13 -33 2 -14 9 -28 70 -159 19 -40 34 -77 34
-83 0 -5 3 -10 8 -10 4 0 13 -14 21 -30 26 -60 44 -64 167 -35 60 15 127 28
149 31 22 2 67 7 100 11 79 9 473 8 550 0 107 -13 160 -19 180 -23 11 -3 35
-7 54 -10 18 -3 65 -14 104 -24 39 -10 75 -17 79 -14 4 3 8 0 8 -7 0 -7 2 -10
5 -7 3 3 43 -8 88 -24 45 -16 87 -30 92 -32 6 -1 21 -8 35 -14 78 -34 216 -86
219 -84 2 2 7 0 10 -5 3 -5 35 -22 71 -37 36 -16 121 -56 190 -89 259 -123
312 -147 325 -147 7 0 15 -3 17 -7 7 -16 171 -64 223 -65 67 -2 161 25 283 83
45 21 87 39 92 39 6 0 10 5 10 10 0 6 5 10 11 10 6 0 69 28 140 62 110 53 130
66 146 97 10 20 21 38 24 41 3 3 25 43 49 90 24 47 51 100 62 118 10 17 27 48
38 67 11 19 38 63 60 98 22 35 40 69 40 75 0 6 4 12 8 14 4 2 30 36 57 76 76
113 77 114 125 176 25 32 52 68 60 80 8 11 19 26 25 32 5 6 33 37 60 70 217
256 443 464 745 686 42 31 82 65 134 113 52 49 102 130 114 185 15 71 -9 186
-50 236 -60 73 -123 121 -191 144 -35 11 -94 19 -100 14z"/>
<path d="M3648 8634 c-2 -1 -30 -5 -63 -8 -33 -4 -67 -9 -75 -11 -8 -2 -31 -6
-50 -9 -19 -3 -57 -12 -84 -20 -27 -8 -53 -13 -58 -10 -4 3 -8 0 -8 -7 0 -7
-3 -10 -6 -6 -3 3 -18 1 -33 -5 -14 -5 -33 -11 -41 -13 -39 -9 -146 -51 -152
-60 -4 -5 -8 -7 -8 -3 0 18 -366 -157 -476 -227 -30 -19 -56 -35 -59 -35 -16
0 -204 -144 -299 -229 -91 -81 -303 -302 -371 -386 -132 -164 -245 -343 -334
-530 -29 -60 -57 -117 -62 -125 -5 -8 -12 -22 -15 -30 -3 -8 -18 -44 -32 -80
-15 -36 -27 -67 -27 -70 0 -3 -3 -9 -6 -15 -12 -18 -109 -327 -109 -344 0 -9
-5 -22 -12 -29 -7 -7 -9 -12 -6 -12 4 0 2 -15 -3 -32 -8 -28 -30 -123 -45
-193 -2 -11 -6 -31 -9 -45 -11 -52 -15 -76 -20 -115 -2 -22 -7 -51 -10 -65 -6
-30 -11 -64 -20 -150 -4 -36 -9 -78 -11 -95 -19 -152 -26 -697 -11 -875 17
-198 18 -213 42 -395 1 -11 3 -20 4 -20 1 0 4 -21 6 -46 2 -26 7 -60 10 -75 3
-16 8 -45 11 -64 3 -19 7 -42 9 -50 3 -8 7 -32 11 -54 3 -21 7 -46 9 -55 3 -9
13 -56 24 -106 33 -150 90 -372 116 -455 97 -301 157 -471 211 -597 8 -17 14
-33 14 -36 0 -3 13 -35 30 -70 16 -36 30 -67 30 -70 0 -3 26 -61 58 -129 32
-67 61 -127 63 -133 2 -5 21 -43 42 -82 20 -40 37 -76 38 -80 0 -5 6 -15 13
-23 7 -8 27 -44 46 -80 18 -36 36 -67 39 -70 4 -3 12 -16 19 -30 7 -14 23 -43
37 -65 13 -22 27 -48 31 -57 3 -10 10 -18 15 -18 5 0 9 -5 9 -11 0 -5 23 -44
50 -86 28 -42 50 -79 50 -84 0 -4 4 -9 8 -11 5 -1 28 -32 52 -68 24 -36 46
-67 50 -70 3 -3 17 -21 30 -40 13 -19 29 -40 35 -46 5 -6 17 -22 25 -34 8 -12
22 -30 30 -40 8 -10 33 -39 55 -66 22 -27 52 -61 67 -76 14 -16 25 -28 23 -28
-4 0 37 -43 159 -170 365 -376 765 -638 1160 -759 72 -22 81 -25 161 -41 28
-6 61 -13 75 -16 37 -8 76 -12 175 -20 185 -14 317 -6 492 32 40 8 76 15 80
16 5 0 13 3 18 8 6 4 25 11 43 15 38 8 200 70 292 113 36 16 88 40 115 52 28
12 53 28 57 34 4 6 8 8 8 4 0 -4 35 10 79 32 181 90 290 108 428 70 70 -19
111 -36 261 -106 159 -75 273 -125 347 -153 33 -12 67 -26 76 -31 9 -5 36 -14
60 -21 24 -7 49 -14 54 -15 38 -12 95 -25 125 -29 19 -3 42 -8 50 -11 46 -16
237 -21 395 -11 138 9 439 73 474 101 8 6 17 10 20 9 8 -4 93 28 109 40 6 5
12 7 12 3 0 -7 283 137 304 155 18 15 118 79 123 79 2 0 10 6 18 13 7 6 39 30
70 52 31 22 70 51 86 65 15 14 43 37 61 52 116 95 351 324 438 427 25 29 52
61 60 71 8 9 33 39 55 65 22 26 48 56 58 66 9 11 17 23 17 28 0 5 3 11 8 13 6
3 102 129 140 185 6 10 35 51 62 91 28 40 50 77 50 82 0 6 4 10 9 10 5 0 14
14 21 30 7 17 16 30 21 30 5 0 9 4 9 9 0 6 33 65 73 133 40 68 79 137 87 153
8 17 21 38 29 47 8 10 11 18 7 18 -3 0 4 17 17 37 43 71 230 475 232 503 0 3
3 10 7 15 11 18 111 289 111 303 0 6 5 12 10 12 5 0 7 7 3 15 -3 8 -1 15 4 15
6 0 9 3 9 8 -1 4 0 9 1 12 1 3 3 12 5 20 2 8 20 65 39 125 20 61 39 123 42
139 3 16 8 34 12 40 3 6 7 16 8 21 1 6 18 73 38 150 49 193 114 494 121 565 1
14 6 43 10 65 14 73 15 80 21 130 3 28 7 64 9 80 13 95 19 311 19 615 1 374
-6 511 -30 685 -3 22 -7 56 -10 75 -2 19 -7 46 -10 60 -5 23 -9 44 -18 105 -2
11 -6 29 -9 40 -6 20 -12 47 -22 103 -3 15 -9 44 -15 65 -5 20 -14 54 -20 75
-26 101 -52 189 -60 207 -5 11 -14 40 -21 65 -6 25 -14 50 -17 55 -4 6 -7 12
-8 15 0 3 -4 14 -9 25 -4 11 -21 54 -37 95 -40 100 -139 310 -148 310 -4 0 -7
6 -7 13 0 6 -23 49 -51 95 -29 46 -52 87 -52 91 0 4 -9 16 -20 26 -11 10 -20
23 -20 30 0 7 -9 20 -20 30 -11 10 -20 22 -20 26 0 8 -20 36 -47 64 -7 8 -13
17 -13 21 0 3 -15 23 -32 44 -18 20 -53 61 -78 91 -84 101 -293 304 -376 364
-21 16 -43 34 -49 40 -37 42 -417 283 -437 278 -4 -2 -8 2 -8 7 0 5 -3 9 -7 8
-5 -1 -47 17 -95 40 -149 72 -374 150 -483 168 -16 3 -37 7 -45 10 -8 3 -33 8
-55 10 -22 3 -46 7 -54 10 -82 27 -449 23 -586 -6 -22 -5 -56 -12 -75 -15 -19
-3 -60 -13 -90 -21 -30 -8 -68 -19 -85 -24 -66 -17 -237 -86 -385 -153 -30
-14 -80 -36 -110 -50 -30 -13 -84 -38 -120 -55 -108 -50 -191 -87 -265 -116
-38 -16 -83 -34 -100 -41 -32 -13 -103 -38 -120 -41 -5 -1 -30 -7 -55 -14 -46
-13 -77 -19 -120 -26 -37 -5 -209 -6 -218 0 -4 2 -26 7 -47 10 -43 6 -62 10
-85 19 -8 3 -28 8 -45 12 -33 7 -135 45 -202 76 -24 10 -45 19 -48 19 -6 0
-32 12 -180 80 -116 54 -179 83 -185 85 -3 1 -27 12 -55 24 -116 52 -161 71
-175 73 -8 2 -17 6 -20 9 -7 8 -193 77 -224 83 -13 2 -34 9 -45 16 -12 6 -21
9 -21 6 0 -3 -21 1 -47 9 -27 7 -61 16 -78 18 -16 3 -57 10 -90 15 -116 21
-161 24 -312 27 -84 1 -154 1 -155 -1z"/>
</g>
</svg>
