<svg width="119" height="36" viewBox="0 0 119 36" fill="none" xmlns="http://www.w3.org/2000/svg">
<path d="M19.9611 1.00461C19.4845 1.28316 18.5245 2.0631 17.8199 2.74554C16.6734 3.85974 15.7064 5.16892 14.9466 6.64523C14.7256 7.06305 14.5391 7.4182 14.5322 7.43213C14.5183 7.44606 14.3664 7.18143 14.1937 6.84021C13.1369 4.79288 11.12 3.08677 8.86833 2.33468C8.13617 2.09095 7.36949 1.95168 6.513 1.89597C5.87064 1.86115 5.79467 1.86811 5.5391 2.01435C5.37333 2.10488 5.19375 2.28594 5.10396 2.45307C4.95891 2.71072 4.952 2.78733 4.99344 3.42102C5.0487 4.26363 5.18684 4.9809 5.44931 5.78869C5.67724 6.46417 6.10549 7.37642 6.20909 7.37642C6.24363 7.37642 6.47847 7.32071 6.74094 7.25803C7.06557 7.17447 7.51453 7.13965 8.21215 7.13965C9.80079 7.13269 10.6711 7.37642 12.8054 8.40705C14.4009 9.17306 14.4078 9.17306 15.6097 8.58811L16.48 8.16332L16.8391 7.48087C17.7923 5.68423 19.0908 4.18703 20.7071 3.02409C21.3218 2.57841 21.5429 2.27201 21.5429 1.86115C21.5429 1.33887 21.0317 0.83052 20.5068 0.83052C20.3756 0.83052 20.1269 0.907121 19.9611 1.00461Z" fill="black"/>
<path d="M7.51973 9.06855C6.55614 9.22216 5.23465 9.76981 4.2573 10.4176C3.54149 10.8985 2.51596 11.9137 1.99975 12.6617C-0.774003 16.6689 -0.650114 23.174 2.29571 28.8108C3.1767 30.4872 4.13341 31.7829 5.33101 32.9116C6.83145 34.3141 8.33878 35.0488 9.93558 35.1556C11.0506 35.2224 11.8834 35.0154 13.3081 34.3074C14.4369 33.7464 14.5677 33.7531 15.8548 34.3675C17.3139 35.0621 17.9884 35.2224 19.0897 35.1556C20.6658 35.0554 22.18 34.3208 23.6461 32.945C26.3166 30.4538 28.2093 26.5468 28.8701 22.1855C29.0421 21.0769 29.0421 18.6859 28.877 17.5906C28.4709 14.9258 27.5073 12.9088 25.9036 11.366C24.1485 9.67631 21.8221 8.78136 19.8812 9.05519C19.014 9.18208 18.5184 9.34905 17.0592 10.0303C14.7398 11.1122 14.3612 11.1189 12.1656 10.0971C11.5049 9.78317 10.7271 9.45591 10.4449 9.36241C9.46067 9.03515 8.38696 8.92829 7.51973 9.06855Z" fill="black"/>
<path d="M47.5233 13.9127C48.8498 13.9127 49.9325 14.3407 50.7713 15.1966C51.6101 16.0525 52.0296 17.1606 52.0296 18.5207C52.0296 19.8809 51.6069 20.9923 50.7616 21.8548C49.9162 22.7174 48.8303 23.1487 47.5038 23.1487H43.9632V28.2742H42.2075V13.9127H47.5233ZM43.9632 21.5563H47.0649C48.0663 21.5563 48.8433 21.2875 49.396 20.7501C49.9488 20.2193 50.2251 19.4762 50.2251 18.5207C50.2251 17.5653 49.952 16.8255 49.4058 16.3013C48.8531 15.7705 48.0728 15.5051 47.0649 15.5051H43.9632V21.5563Z" fill="black"/>
<path d="M53.834 17.5454H55.4336V19.2871H55.4726C55.6287 18.7231 55.9376 18.2752 56.3992 17.9435C56.8609 17.6117 57.4006 17.4459 58.0184 17.4459C58.285 17.4459 58.5028 17.4691 58.6719 17.5155V19.2274C58.4898 19.1477 58.1972 19.1079 57.794 19.1079C57.1113 19.1079 56.5651 19.3402 56.1554 19.8046C55.7392 20.2691 55.5312 20.8795 55.5312 21.6359V28.2742H53.834V17.5454Z" fill="black"/>
<path d="M64.0169 28.3737C62.5409 28.3737 61.3639 27.8794 60.4861 26.8908C59.6082 25.9022 59.1693 24.5752 59.1693 22.9098C59.1693 21.2444 59.6082 19.9174 60.4861 18.9288C61.3639 17.9402 62.5409 17.4459 64.0169 17.4459C65.493 17.4459 66.6699 17.9402 67.5478 18.9288C68.4256 19.9174 68.8645 21.2444 68.8645 22.9098C68.8645 24.5752 68.4256 25.9022 67.5478 26.8908C66.6699 27.8794 65.493 28.3737 64.0169 28.3737ZM64.0169 26.8311C64.9988 26.8311 65.7628 26.4861 66.3091 25.796C66.8618 25.0994 67.1381 24.1373 67.1381 22.9098C67.1381 21.6757 66.8618 20.7136 66.3091 20.0236C65.7628 19.3335 64.9988 18.9885 64.0169 18.9885C63.035 18.9885 62.271 19.3335 61.7248 20.0236C61.1721 20.7202 60.8957 21.6823 60.8957 22.9098C60.8957 24.1373 61.1721 25.0994 61.7248 25.796C62.2775 26.4861 63.0415 26.8311 64.0169 26.8311Z" fill="black"/>
<path d="M78.4037 24.1638H72.8051L71.3908 28.2742H69.5473L74.7363 13.9127H76.4725L81.6615 28.2742H79.818L78.4037 24.1638ZM73.322 22.6411H77.8868L75.6336 16.0923H75.5751L73.322 22.6411Z" fill="black"/>
<path d="M88.1087 17.4459C89.4547 17.4459 90.5406 17.9468 91.3665 18.9487C92.1988 19.9572 92.6149 21.2776 92.6149 22.9098C92.6149 24.542 92.202 25.8624 91.3762 26.8709C90.5504 27.8728 89.4742 28.3737 88.1477 28.3737C86.6066 28.3737 85.4882 27.76 84.7924 26.5325H84.7534V31.8571H83.0563V17.5454H84.6656V19.2871H84.7046C85.0103 18.7297 85.4719 18.2819 86.0897 17.9435C86.7074 17.6117 87.3804 17.4459 88.1087 17.4459ZM87.7966 26.8311C88.7264 26.8311 89.471 26.4761 90.0302 25.7662C90.5959 25.0496 90.8788 24.0975 90.8788 22.9098C90.8788 21.7288 90.5959 20.78 90.0302 20.0634C89.471 19.3468 88.7264 18.9885 87.7966 18.9885C86.8927 18.9885 86.158 19.3501 85.5922 20.0733C85.0265 20.7966 84.7437 21.742 84.7437 22.9098C84.7437 24.0776 85.0265 25.0231 85.5922 25.7463C86.1515 26.4695 86.8862 26.8311 87.7966 26.8311Z" fill="black"/>
<path d="M99.4621 17.4459C100.808 17.4459 101.894 17.9468 102.72 18.9487C103.552 19.9572 103.968 21.2776 103.968 22.9098C103.968 24.542 103.555 25.8624 102.73 26.8709C101.904 27.8728 100.828 28.3737 99.5011 28.3737C97.96 28.3737 96.8416 27.76 96.1458 26.5325H96.1068V31.8571H94.4096V17.5454H96.019V19.2871H96.058C96.3636 18.7297 96.8253 18.2819 97.4431 17.9435C98.0608 17.6117 98.7338 17.4459 99.4621 17.4459ZM99.15 26.8311C100.08 26.8311 100.824 26.4761 101.384 25.7662C101.949 25.0496 102.232 24.0975 102.232 22.9098C102.232 21.7288 101.949 20.78 101.384 20.0634C100.824 19.3468 100.08 18.9885 99.15 18.9885C98.2461 18.9885 97.5113 19.3501 96.9456 20.0733C96.3799 20.7966 96.097 21.742 96.097 22.9098C96.097 24.0776 96.3799 25.0231 96.9456 25.7463C97.5048 26.4695 98.2396 26.8311 99.15 26.8311Z" fill="black"/>
<path d="M105.861 13.2857H107.558V28.2742H105.861V13.2857Z" fill="black"/>
<path d="M114.151 18.9686C113.325 18.9686 112.643 19.2473 112.103 19.8046C111.557 20.362 111.254 21.0951 111.196 22.0041H116.98C116.96 21.0951 116.69 20.362 116.17 19.8046C115.657 19.2473 114.984 18.9686 114.151 18.9686ZM118.618 25.2088C118.475 26.1311 117.994 26.8875 117.175 27.478C116.356 28.0752 115.383 28.3737 114.259 28.3737C112.782 28.3737 111.609 27.8861 110.737 26.9107C109.873 25.9354 109.44 24.615 109.44 22.9496C109.44 21.2842 109.873 19.9506 110.737 18.9487C111.602 17.9468 112.75 17.4459 114.181 17.4459C115.585 17.4459 116.697 17.917 117.516 18.8591C118.336 19.8079 118.745 21.0918 118.745 22.7108V23.3875H111.196V23.4871C111.196 24.5088 111.479 25.325 112.044 25.9354C112.61 26.5458 113.361 26.851 114.298 26.851C114.954 26.851 115.523 26.7017 116.004 26.4031C116.479 26.1112 116.791 25.7131 116.941 25.2088H118.618Z" fill="black"/>
</svg>
